<?xml version="1.0" encoding="utf-8"?>
<!-- Generator: Adobe Illustrator 20.1.0, SVG Export Plug-In . SVG Version: 6.00 Build 0)  -->
<?xml-stylesheet type="text/css" href="../css/style.css"?>
<svg version="1.1" id="Layer_1" xmlns="http://www.w3.org/2000/svg" xmlns:xlink="http://www.w3.org/1999/xlink" x="0px" y="0px"
	 viewBox="0 0 300 300" style="enable-background:new 0 0 300 300;" xml:space="preserve">
<style type="text/css">
	.st0{fill:#FF0000;stroke:#000000;stroke-width:3;stroke-miterlimit:10;}
	.st1{fill:none;stroke:#000000;stroke-width:3;stroke-miterlimit:10;}
	.st2{fill-rule:evenodd;clip-rule:evenodd;fill:#8CC63F;stroke:#000000;stroke-width:3;stroke-miterlimit:10;}
</style>
<g>
	<path class="st0 lol" d="M75.6,252.1c-36.4,0-66.1-29.6-66.1-66.1S39.1,120,75.6,120s66.1,29.6,66.1,66.1S112,252.1,75.6,252.1z"/>
</g>
<g>
	<path class="st0 lol" d="M169.2,290.2c-36.4,0-66.1-29.6-66.1-66.1s29.6-66.1,66.1-66.1c36.4,0,66.1,29.6,66.1,66.1
		S205.7,290.2,169.2,290.2z"/>

</g>
<g>
	<polyline class="st1 lol" points="111.5,152.5 98.5,147.5 232.5,25 186.5,179.5 200.5,179.5 	"/>
</g>
<polygon class="st2 lol" points="235.5,24.5 271,24.5 284.5,47.5 246.5,47.5 "/>
</svg>
