<?xml version="1.0" encoding="utf-8"?>
<!-- Generator: Adobe Illustrator 20.1.0, SVG Export Plug-In . SVG Version: 6.00 Build 0)  -->
<svg version="1.1" id="Layer_1" xmlns="http://www.w3.org/2000/svg" xmlns:xlink="http://www.w3.org/1999/xlink" x="0px" y="0px"
	 viewBox="0 0 300 300" style="enable-background:new 0 0 300 300;" xml:space="preserve">
<style type="text/css">
	.st0{fill:#FF0000;}
	.st1{fill:none;stroke:#000000;stroke-width:3;stroke-miterlimit:10;}
	.st2{fill-rule:evenodd;clip-rule:evenodd;fill:#8CC63F;stroke:#000000;stroke-width:3;stroke-miterlimit:10;}
</style>
<g>
	<path class="st0" d="M75.6,252.1c-36.4,0-66.1-29.6-66.1-66.1S39.1,120,75.6,120s66.1,29.6,66.1,66.1S112,252.1,75.6,252.1z"/>
	<path d="M75.6,121.5c35.6,0,64.6,29,64.6,64.6s-29,64.6-64.6,64.6S11,221.7,11,186.1S40,121.5,75.6,121.5 M75.6,118.5
		C38.2,118.5,8,148.7,8,186.1s30.2,67.6,67.6,67.6s67.6-30.2,67.6-67.6S112.9,118.5,75.6,118.5L75.6,118.5z"/>
</g>
<g>
	<path class="st0" d="M169.2,290.2c-36.4,0-66.1-29.6-66.1-66.1s29.6-66.1,66.1-66.1c36.4,0,66.1,29.6,66.1,66.1
		S205.7,290.2,169.2,290.2z"/>
	<path d="M169.2,159.6c35.6,0,64.6,29,64.6,64.6s-29,64.6-64.6,64.6s-64.6-29-64.6-64.6S133.6,159.6,169.2,159.6 M169.2,156.6
		c-37.3,0-67.6,30.2-67.6,67.6s30.2,67.6,67.6,67.6s67.6-30.2,67.6-67.6S206.6,156.6,169.2,156.6L169.2,156.6z"/>
</g>
<g>
	<polyline class="st1" points="111.5,152.5 98.5,147.5 232.5,25 186.5,179.5 200.5,179.5 	"/>
</g>
<polygon class="st2" points="235.5,24.5 271,24.5 284.5,47.5 246.5,47.5 "/>
</svg>
