<?xml version="1.0" encoding="utf-8"?>
<!-- Generator: Adobe Illustrator 20.1.0, SVG Export Plug-In . SVG Version: 6.00 Build 0)  -->
<svg version="1.1" id="Layer_1" xmlns="http://www.w3.org/2000/svg" xmlns:xlink="http://www.w3.org/1999/xlink" x="0px" y="0px"
	 viewBox="0 0 300 300" style="enable-background:new 0 0 300 300;" xml:space="preserve">
<style type="text/css">
	.st0{fill:#FFFFFF;stroke:#000000;stroke-width:3;stroke-miterlimit:10;}
	.st1{fill:#FFFFFF;stroke:#000000;stroke-miterlimit:10;}
	.st2{stroke:#FFFFFF;stroke-miterlimit:10;}
</style>
<g>
	<polygon class="st0" points="286.5,63.8 286.5,154.2 208.7,187 129.5,154.2 129.5,63.8 208.7,31 	"/>
	<polyline class="st0" points="130.5,63.8 209.2,94.8 287.8,63.8 	"/>
	<line class="st0" x1="208.5" y1="95" x2="208.5" y2="187"/>
</g>
<path class="st1" d="M-34.3-47.7"/>
<g>
	<polygon class="st0" points="172.5,151.8 172.5,242.2 94.7,275 15.5,242.2 15.5,151.8 94.7,119 	"/>
	<polyline class="st0" points="16.5,151.8 95.2,182.8 173.8,151.8 	"/>
	<line class="st0" x1="94.5" y1="183" x2="94.5" y2="275"/>
</g>
<ellipse class="st2" cx="95.5" cy="151.4" rx="9.9" ry="8.4"/>
<ellipse class="st2" cx="209.5" cy="63.8" rx="9.9" ry="8.4"/>
<ellipse class="st2" cx="150.1" cy="101" rx="9" ry="10"/>
<ellipse class="st2" cx="189.6" cy="157" rx="9" ry="10"/>
<ellipse class="st2" cx="113.9" cy="197" rx="9" ry="10"/>
<ellipse class="st2" cx="155.4" cy="232.3" rx="9" ry="10"/>
<circle class="st2" cx="269.9" cy="95" r="10"/>
<circle class="st2" cx="249.9" cy="128" r="10"/>
<circle class="st2" cx="227.4" cy="159.8" r="10"/>
<ellipse class="st2" cx="77.6" cy="199.3" rx="8.7" ry="10"/>
<ellipse class="st2" cx="77.6" cy="250.8" rx="8.7" ry="10"/>
<ellipse class="st2" cx="32.6" cy="231.8" rx="8.7" ry="10"/>
<ellipse class="st2" cx="32.6" cy="179.8" rx="8.7" ry="10"/>
</svg>
