<?xml version="1.0" encoding="utf-8"?>
<!-- Generator: Adobe Illustrator 20.1.0, SVG Export Plug-In . SVG Version: 6.00 Build 0)  -->
<?xml-stylesheet type="text/css" href="../css/style.css"?>
<svg version="1.1" id="Layer_1" xmlns="http://www.w3.org/2000/svg" xmlns:xlink="http://www.w3.org/1999/xlink" x="0px" y="0px"
	 viewBox="0 0 300 300" style="enable-background:new 0 0 300 300;" xml:space="preserve">
<style type="text/css">
	.st0{fill:#FFFFFF;stroke:#000000;stroke-width:3;stroke-miterlimit:10;}
	.st1{stroke:#ffffff;stroke-width:3;stroke-miterlimit:10;}
	.st2{fill:none;stroke:#000000;stroke-width:3;stroke-miterlimit:10;}
</style>
<path class="st1 " d="M58.9,153.7c-5-6.7-14.6-8.1-21.3-3.1s-8.1,14.6-3.1,21.3c5,6.7,14.6,8.1,21.3,3.1
	C62.5,170,63.9,160.4,58.9,153.7z M49.6,167.1c-2.3,1.7-5.6,1.2-7.3-1.1c-1.7-2.3-1.2-5.6,1.1-7.3c2.3-1.7,5.6-1.2,7.3,1.1
	C52.4,162.1,52,165.3,49.6,167.1z"/>
<path class="st1 " d="M209.1,243.7c-5-6.7-14.6-8.1-21.3-3.1s-8.1,14.6-3.1,21.3c5,6.7,14.6,8.1,21.3,3.1
	C212.7,260,214.1,250.4,209.1,243.7z M199.9,257.1c-2.3,1.7-5.6,1.2-7.3-1.1c-1.7-2.3-1.2-5.6,1.1-7.3c2.3-1.7,5.6-1.2,7.3,1.1
	C202.6,252.1,202.2,255.3,199.9,257.1z"/>
<path class="st1 lol" d="M31.3,128l206.4,123.8c0.5,0.3,0.9,0.5,1.4,0.7c8.1,3.3,26.3,4.7,28.1,4.6l9-0.9c2.5-0.2,6.3-1.4,9.6-3.1
	c4.7-2.4,6.3-10.8,6.2-18.9l0,0c-0.5-3.9-0.5-15.6-8-19.7c-2.4-1.3-5-2.3-7.1-3.1c-0.3-0.1-0.7-0.2-1-0.3l-11.2-2.9
	c-0.6-0.2-1.3-0.4-1.9-0.6c-2.3-1-5.8-2.7-7.1-3.4L57.1,85.6c-0.6-0.5-1.7-1.2-2.3-1.7L41,71.3c-1-0.9-2.2-1.7-3.4-2.2
	c-3.9-1.6-7.1-0.2-9.6,0.6c-8.2,2.9-14.8,10.9-16.3,12.6c-4.6,5.2-5,13,0.3,21l1.9,3.3c2.3,3.7,7,10.8,10.1,14.8
	c1.9,2.4,3.9,4.2,6.4,6C30.7,127.7,31,127.9,31.3,128z"/>
<polygon class="st0 lol" points="215.9,181 192,223.6 172.2,211.9 196.9,169.7 "/>

</svg>
