<?xml version="1.0" encoding="utf-8"?>
<!-- Generator: Adobe Illustrator 20.1.0, SVG Export Plug-In . SVG Version: 6.00 Build 0)  -->
<svg version="1.1" id="Layer_1" xmlns="http://www.w3.org/2000/svg" xmlns:xlink="http://www.w3.org/1999/xlink" x="0px" y="0px"
	 viewBox="0 0 300 300" style="enable-background:new 0 0 300 300;" xml:space="preserve">
<style type="text/css">
	.st0{fill:#FFFFFF;stroke:#000000;stroke-width:3;stroke-miterlimit:10;}
	.st1{stroke:#000000;stroke-width:3;stroke-miterlimit:10;}
</style>
<circle class="st0" cx="201.9" cy="-144" r="14"/>
<circle class="st0" cx="50.4" cy="-80.9" r="14"/>
<circle class="st1" cx="50.4" cy="-80.9" r="3.7"/>
<circle class="st1" cx="201.9" cy="-144" r="3.7"/>
<path class="st0" d="M16.8-88.5l217-91.1c1.7-0.7,3-1.9,4-3.4l15.6-25.3c2.7-4.3,1-10-3.5-12.2l-27.3-13.5
	c-3.8-1.9-8.4-0.7-10.8,2.7l-11,15.6c-0.9,1.3-2.2,2.4-3.7,3L-1-130.6c-0.1,0-0.2,0.1-0.3,0.1l-19.2,3.7c-5.4,1.8-6.3,5.8-7.1,8.5
	c-2.3,7.6,0,16.9,0.4,19c1.3,6.2,6.8,10.9,15.7,11.3l3.5,0.4c4,0.3,11.9,0.8,16.5,0.7C11.4-87.1,14-87.6,16.8-88.5z"/>
<polygon class="st1" points="151.3,-193.7 178.9,-156.5 156.2,-147 130.8,-185.2 "/>
<ellipse transform="matrix(0.8022 -0.597 0.597 0.8022 -111.982 169.087)" class="st0" cx="199.2" cy="253.6" rx="15.2" ry="15.2"/>
<ellipse transform="matrix(0.8022 -0.597 0.597 0.8022 -87.9447 59.6109)" class="st0" cx="46" cy="162.5" rx="15.2" ry="15.2"/>
<ellipse transform="matrix(0.8022 -0.597 0.597 0.8022 -87.9447 59.6109)" class="st1" cx="46" cy="162.5" rx="4" ry="4"/>
<ellipse transform="matrix(0.8022 -0.597 0.597 0.8022 -111.982 169.087)" class="st1" cx="199.2" cy="253.6" rx="4" ry="4"/>
<path class="st1" d="M31.3,128l206.4,123.8c0.5,0.3,0.9,0.5,1.4,0.7c8.1,3.3,26.3,4.7,28.1,4.6l9-0.9c2.5-0.2,6.3-1.4,9.6-3.1
	c4.7-2.4,6.3-10.8,6.2-18.9l0,0c-0.5-3.9-0.5-15.6-8-19.7c-2.4-1.3-5-2.3-7.1-3.1c-0.3-0.1-0.7-0.2-1-0.3l-11.2-2.9
	c-0.6-0.2-1.3-0.4-1.9-0.6c-2.3-1-5.8-2.7-7.1-3.4L57.1,85.6c-0.6-0.5-1.7-1.2-2.3-1.7L41,71.3c-1-0.9-2.2-1.7-3.4-2.2
	c-3.9-1.6-7.1-0.2-9.6,0.6c-8.2,2.9-14.8,10.9-16.3,12.6c-4.6,5.2-5,13,0.3,21l1.9,3.3c2.3,3.7,7,10.8,10.1,14.8
	c1.9,2.4,3.9,4.2,6.4,6C30.7,127.7,31,127.9,31.3,128z"/>
<polygon class="st0" points="215.9,181 192,223.6 172.2,211.9 196.9,169.7 "/>
<ellipse transform="matrix(0.8547 -0.5192 0.5192 0.8547 17.1467 -439.1714)" class="st0" cx="-775.8" cy="-250.2" rx="15.5" ry="15.5"/>
<ellipse transform="matrix(0.8547 -0.5192 0.5192 0.8547 51.3314 -530.8417)" class="st0" cx="-922.4" cy="-357.1" rx="15.5" ry="15.5"/>
<ellipse transform="matrix(0.8547 -0.5192 0.5192 0.8547 51.3314 -530.8417)" class="st1" cx="-922.4" cy="-357.1" rx="4.1" ry="4.1"/>
<ellipse transform="matrix(0.8547 -0.5192 0.5192 0.8547 17.1467 -439.1714)" class="st1" cx="-775.8" cy="-250.2" rx="4.1" ry="4.1"/>
<path class="st0" d="M-934.4-393.2l210.6,152.8c1.6,1.2,3.5,1.8,5.5,1.8l32.9,0.2c5.6,0,10-4.7,9.5-10.3l-2.9-33.6
	c-0.4-4.7-4.1-8.3-8.8-8.7l-21.1-1.4c-1.8-0.1-3.5-0.8-5-1.8l-191.2-140c-0.1-0.1-0.2-0.2-0.3-0.2l-14.5-16c-4.8-4-9.1-2.6-12.1-1.9
	c-8.5,2.2-16,9.7-17.7,11.3c-5.1,4.8-6.3,12.7-1.7,21.3l1.6,3.5c2,4,6.1,11.7,8.8,15.9C-939-397.5-937-395.3-934.4-393.2z"/>
<polygon class="st1" points="-757.9,-326.5 -777.2,-279 -799.2,-295 -777.7,-341 "/>
</svg>
