<?xml version="1.0" encoding="utf-8"?>
<!-- Generator: Adobe Illustrator 20.1.0, SVG Export Plug-In . SVG Version: 6.00 Build 0)  -->
<svg version="1.1" xmlns="http://www.w3.org/2000/svg" xmlns:xlink="http://www.w3.org/1999/xlink" x="0px" y="0px"
	 viewBox="0 0 300 300" style="enable-background:new 0 0 300 300;" xml:space="preserve">
<style type="text/css">
	.st0{fill:transparent;stroke:#FDCF4E;stroke-width:3;stroke-miterlimit:10;stroke-dasharray:2000;}
	.st1{fill:none;stroke:#F55F1B;stroke-width:13;stroke-miterlimit:10;}
	.st2{fill:none;stroke:#FFFFFF;stroke-width:9;stroke-miterlimit:10;}
	.st3{fill:none;stroke:#FFFFFF;stroke-width:11;stroke-miterlimit:10;}
	.st4{fill:none;stroke:#FFFFFF;stroke-width:13;stroke-miterlimit:10;}
	.st5{fill:none;stroke:#C6E9EE;stroke-width:11;stroke-miterlimit:10;}
</style>
<g id="Sun">
	<path class="st0" d="M94.5,252.3c-1.4-0.2-2.8-0.3-4.2-0.4c-1.3-0.1-2.4,0.4-3,1.5c-2.9,5.9-7.8,10.6-10.1,16.8
		c-0.3,0.8-0.9,1.5-1,2.2c-0.8,4.8-3.6,7.4-8.5,7.6c0.1-0.4,0.6-1,0.5-1.4c-2.2-5.7,1.1-10,3.5-14.6c1.7-3.3,3.7-6.6,5.4-9.9
		c0.5-1,1-2.1,0.3-3.3c-0.9-1.5-1-3.3-0.5-4.8c0.8-2.5-0.7-3.3-2.3-4.3c-4.7-3.2-9.6-6.3-13.7-10.4c-2.6-2.6-4.8-2.9-7.5-0.4
		c-3.4,3.2-8,4.4-11.5,7.5c-0.7,0.6-1.7,0.8-2.6,1c-2,0.3-4,0.4-5-2c-1-2.5-0.7-4.1,1.7-5.8c3.4-2.3,6.9-4.5,10.4-6.7
		c0.4-0.3,0.8-0.4,1.2-0.7c5-3.3,5.1-3.4,2.1-8.6c-3.1-5.3-5.6-10.8-8.1-16.3c-1.5-3.3-2.4-3.9-5.7-2.7c-4.7,1.7-9.5,2.5-14.3,3.6
		c-1.9,0.4-3.7,0.4-5.6-0.2c-1.9-0.6-3-1.9-2.7-3.6c0.3-1.8,0.9-4.1,3.4-4.4c5.6-0.5,11-2.3,16.5-3.6c1.2-0.3,2.5-0.8,3.7-1.3
		c1.1-0.4,1.7-1.2,1.7-2.4c0-4,0-8-0.6-12c-0.3-1.7-1.4-2-2.8-2c-2.7,0-5.4,0-8.1,0c-2.4-0.1-4.7-2.4-4.6-4.7
		c0.1-2.2,1.9-3.7,4.6-3.8c2.4-0.1,4.7,0.1,7.1,0c3.8-0.2,4-0.9,4.6-4.6c0.7-4,0.1-8,1.1-11.9c0.4-1.8,0-3-2-3.3
		c-1.3-0.1-2.5-0.6-3.8-0.7c-2.2-0.2-4.4-2.5-4.4-4.4c0-1.6,2.6-4,4.6-4.1c1.9-0.1,3.8-0.2,5.7,0c2.6,0.3,4-1.1,4.2-3.3
		c0.5-6.1,2.9-11.6,4.7-17.2c0.9-2.7,0-3.8-2.2-5c-3.8-2-7.5-4.4-11.1-6.6c-1.4-0.9-2.5-2.2-3-3.8c-0.5-1.6,0-3,1.3-4.1
		c1.7-1.5,3.8-1.7,5.2-0.4c3.2,2.7,7.6,2.9,10.7,5.8c1.6,1.5,3.4,1.1,5.2-0.6c6.9-6.1,11.2-14.2,16.7-21.3c1.3-1.7,0.9-2.7-0.4-3.9
		c-1.8-1.6-3.6-3-5.3-4.6c-2.4-2.2-2.7-3.9-1.3-5.8c1.6-2,4.4-2.7,6.7-1.2c1.9,1.2,3.5,2.8,5.2,4.2c2.8,2.3,4.5,2.5,6.6-0.3
		c4.9-6.4,12.1-9.6,18.5-13.7c2.3-1.5,2.8-3.7,0.6-5.5c-1.7-1.4-2.8-3.2-4.1-4.8c-1.5-1.8-1.1-3.6,0.8-5.2c2-1.7,3.3-1.7,5.2-0.2
		c2.2,1.9,3.9,4,5.5,6.4c1.8,2.8,3.4,3.7,6.2,2.5c4.8-2.1,9.9-1.8,14.9-2.6c4.5-0.7,4.8-1,4.9-5.5c0-4.2-0.1-8.5,0-12.7
		c0-2.8,1.4-4.8,3.4-5.1c2-0.3,3.9,0.9,4.6,2.9c0.9,2.6,0.5,5.4,0.5,8.1c0.1,2.4,0.1,4.7,0,7.1c-0.1,1.8,0.5,2.6,2.4,2.5
		c4.8-0.2,9.6-1.1,14.4-0.8c1.5,0.1,2.1-0.8,2.2-2.2c0.1-1.2,0.2-2.4,0.1-3.5c-0.5-5.1,1.4-9.7,3-14.4c0.8-2.3,2.8-3.3,5-2.7
		c3.4,0.9,4.8,2.6,4.3,5.4c-0.7,3.9-1.2,7.8-2.4,11.7c-1,3.1-0.2,4.3,3,5.1c2.7,0.7,5.4,1.5,8.2,1.8c2.7,0.3,5.2,1.1,7.5,2.7
		c3.6,2.5,4.3,1.6,7.3-1.5c2.6-2.7,3.7-6.4,6.9-8.6c3.4-2.3,5.9-2.4,7.6-0.3c1.6,2,1.5,7-0.4,8.9c-1.7,1.6-3,3.6-4.6,5.4
		c-2,2.4-1.8,5,0.8,6.6c2.6,1.6,3.8,4.3,6.2,6.1c2,1.6,4,3.2,6.1,4.8c1.7,1.2,2.9,0.9,4.4-0.1c1.8-1.2,3.2-2.7,4.9-4
		c2.4-1.9,5.2-1.7,6.6,0.2c1.3,1.8,1.8,3.6-0.1,5.3c-1.2,1.1-2.3,2.3-3.7,3.3c-3.5,2.5-3.7,4.9-0.7,7.8c3.5,3.3,5.8,7.6,8.6,11.4
		c3.3,4.5,3.6,5.1,9.4,1.1c1.1-0.8,2-1.8,3.4-2.3c2.2-0.8,3.8,0,5,1.5c1.3,1.6,0.7,3.2-0.5,4.8c-1.8,2.3-4.2,4.1-6.2,6.2
		c-2,2.1-2.1,3.8-0.2,5.8c1.4,1.4,2.4,2.9,2.8,4.8c0.5,2.2,1.7,2.4,3.7,1.8c4.7-1.5,9.2-3.5,14-4.6c2.7-0.6,6.6,1.5,7.5,3.9
		c0.4,1.2-2.1,5.2-3.5,5.6c-5.3,1.4-10,4.5-15.4,6c-1.9,0.5-2.1,2.9-1.8,4.6c0.4,2.3,0.5,4.7,0.5,7c0,1.5,0.6,2.2,2.1,2.1
		c1.7,0,3.2-0.1,4.8-0.8c4.5-1.8,9.1-3.2,13.9-3.4c3.3-0.2,4.9,1.5,5.2,4.7c0.3,3.1-2.4,6.4-5.6,6.6c-6,0.5-11.5,3.3-17.5,3.8
		c-1.5,0.1-2.2,1.6-2.4,3.2c-0.6,5.3-1.1,10.7-2.1,15.9c-0.9,4.6,0.9,6.6,5.8,6.8c3.5,0.1,7,0.5,10.4,1.4c2.3,0.6,4,3.4,3.5,5.8
		c-0.5,2-2.2,3.2-4.1,3.5c-4.4,0.6-8.9-0.5-13.4,0.5c-0.4,0.1-0.9-0.7-1.5-0.9c-2.6-1-3.8-0.2-5.2,2.3c-3.5,6.4-4.8,13.7-8.4,20.1
		c-1.4,2.4-0.8,3.9,1.5,5.4c2.3,1.4,4.4,3.2,7.4,3.1c1.7-0.1,2.1,1.4,2.4,2.6c1.2,4.4-1.9,7.6-6.6,7c-2.1-0.3-4.1-1.1-6-1.9
		c-3.7-1.5-5.7-0.5-6.3,3.4c-0.4,2.3-1.2,4.2-2.9,5.8c-2.4,2.4-4,5.4-6.3,8c-1.5,1.6-1.1,3.6,0.7,4.9c2.8,2,5.2,4.4,7.6,6.8
		c2,2.1,2.4,5.8,0.3,7.6c-1.1,1-3.2,1.2-4.7,0.4c-1.7-0.9-3.4-1.9-4.8-3.4c-2.4-2.4-5.1-4.4-8-6.2c-1.4-0.9-2.6-0.8-3.6-0.1
		c-5.1,3.5-11.2,4.9-16.7,7.5c-3.1,1.5-5.8,3.5-8.9,5c-1.3,0.6-2.2,2-1.3,3.5c2,3.9,2.2,8.8,6.1,11.8c0.9,0.7,0.7,2.2,0.7,3.4
		c0,0.6,0.1,1.4-0.2,1.7c-1.1,1,1.6,3.2-0.8,3.4c-1.9,0.1-4,0.5-5.8-1.2c-2.7-2.6-4.7-5.7-6.3-8.9c-1-2-1-4.7-1.4-7
		c-0.4-2.5-1.9-2.5-3.4-2.2c-2.2,0.4-4.3,1-6.5,1.4c-3.5,0.6-6.9,0.4-10.3-0.4c-2.6-0.6-4.9,0.2-7.2,1c-1,0.3-1.1,1.1-1.2,2
		c0,2-0.1,4,0.2,6c0.6,3.4-0.2,6.7-0.6,10.1c-0.3,2.4-2.7,1.9-4.3,2.4c-1.8,0.6-2.8-0.7-3.6-2.1c-0.6-1.1-0.8-2.3-0.5-3.4
		c1-4-0.3-8-0.1-12c0.1-2.8-2-4.9-4.6-4.9c-3.1,0-6-0.8-8.9-1.8c-2.8-0.9-3.2-0.6-3.7,2.2c-0.5,2.8-0.6,5.6-2,8.2
		c-1.2,2.2-3.9,3.3-6.1,2.4c-1-0.4-1-1.2-1-2c0-2.4,0-4.7,0.2-7.1c0.6-6.4-0.2-8.1-6.3-9.5c-3.8-0.9-7.2-2.7-11.1-3.3
		C99.2,254.1,96.8,253.2,94.5,252.3z">
		<animate
		 attributeName="fill"
		 from="transparent"
		 to="#FDCF4E"
		 dur="1s"
		 begin="2s"
		 fill="freeze" />
		 <animate
		 attributeName="stroke-dashoffset"
		 from="2000"
		 to="0"
		 dur="4s"
		 fill="freeze" />
	 </path>
</g>
<g id="Layer_3">
	<path class="st1" stroke-dashoffset="500" stroke-dasharray="500" d="M161.2,225c-9,0-19-0.4-28.7-3c-10.9-2.9-21.1-7.4-29.7-15.1c-5.6-5-11.3-10-15.3-16.4
		c-3.1-4.8-5.3-9.9-4.8-15.9c0.3-3.1,1.7-5.3,4.1-6.9c1.5-1,3-1,4.6,0.4c4.8,4.2,9.4,8.4,14.7,12c3.4,2.3,7.3,3,10.8,4.8
		c2,1,4.2,1.1,6.3,1.3c7.2,0.7,14.5,0.2,21.7,0.7c5,0.4,9.9,0.6,14.9,0.3c7.6-0.5,15.3-0.3,22.9-0.5c9.4-0.4,18.6-1.9,27.6-5.1
		c4.6-1.6,9.3-2.7,13.8-4.5c2.5-1,5-0.3,6.9,1.5c1.9,1.9,2.1,4.2,0.9,6.6c-3.2,6.6-7.3,12.6-12.5,17.8c-3.5,3.5-6.9,7.1-11,9.9
		c-3.2,2.2-6.2,4.9-10.1,6.2c-7.8,2.8-15.8,4.9-24.1,5.4C170.2,224.8,166.3,224.9,161.2,225z">
		<animate
		 attributeName="fill"
		 from="transparent"
		 to="#111"
		 dur="1s"
		 begin="4s"
		 fill="freeze" />
		 <animate
		 attributeName="stroke-dashoffset"
		 from="500"
		 to="0"
		 dur="4s"
		 begin="2s"
		 fill="freeze" />
	 </path>
</g>
<g id="Eye_Main">
	<path class="st2" stroke-dashoffset="550" stroke-dasharray="550" d="M117.6,136.4c-2.2,0.4-4.4-0.2-6.5-0.5c-2.2-0.3-4-1.7-5.6-3.2c-3.1-3-3.2-6.5-2.8-10.5
		c0.4-4.6,2.8-8.2,5.1-11.9c0.5-0.8,1.2-1.4,2.1-1.8c4.3-1.7,8.8-2.5,13.3-1.1c5.5,1.8,9.1,5.9,10.1,11.4c0.6,3.5,0.2,7.6-1.8,10.9
		c-1.2,2-3.4,3.1-5.2,4.5C123.7,136.2,120.7,136.8,117.6,136.4z">
		<animate
		 attributeName="fill"
		 from="transparent"
		 to="#fff"
		 dur="1s"
		 begin="4s"
		 fill="freeze" />
		 <animate
		 attributeName="stroke-dashoffset"
		 from="550"
		 to="0"
		 dur="8s"
		 begin="3s"
		 fill="freeze" />
		</path>
	<path class="st3" stroke-dashoffset="500" stroke-dasharray="500" d="M192.9,104.7c1.2-0.3,3.2,0.9,5,1.8c2.8,1.3,5.9,2.4,7.7,5.3c1,1.7,1.7,3.5,1.1,5.6c-0.4,1.6-0.2,3.3-0.6,4.9
		c-0.8,3.6-2.6,6.2-5.6,8.6c-4.3,3.5-8.9,2.5-13.1,1.4c-3.8-1-7.5-3.3-9-7.6c-0.7-2.1-0.5-4.3-0.4-6.4c0.1-2.4,0.5-4.9,1.9-7
		C182.7,106.8,186.8,105.1,192.9,104.7z">
		<animate
		 attributeName="fill"
		 from="transparent"
		 to="#fff"
		 dur="1s"
		 begin="4s"
		 fill="freeze" />
		 <animate
		 attributeName="stroke-dashoffset"
		 from="500"
		 to="0"
		 dur="8s"
		 begin="3s"
		 fill="freeze" />
		</path>
	<path class="st4" stroke-dashoffset="500" stroke-dasharray="500" d="M160.5,211.6c-8.9,0-17.9-0.2-26.5-1.6c-3.8-0.6-7.5-1.6-10.9-2.7c-3.6-1.2-6.7-2.9-10.1-4.3
		c-1.1-0.4-1.4-0.9-0.6-1.5c0.7-0.6,0.4-0.9-0.6-1.2c-1.3-0.4-1.8-1.1-1.6-1.9c0.2-1.1,1.2-1.5,3-1.2c0.7,0.1,1.5,0.3,2.2,0.5
		c4.2,1.4,8.8,1.7,13.4,1.9c12.8,0.5,25.6,0.5,38.3,0.2c7.5-0.1,15.1-0.1,22.6-0.5c4.2-0.3,8.1-1.2,12.2-1.9
		c0.6-0.1,1.1-0.2,1.7-0.3c1-0.1,1.4,0.2,1.5,0.7c0.1,0.5,0.1,1-0.2,1.5c-1.9,2.8-3.9,5.5-8.9,6.7c-1.3,0.3-2,1.1-3.2,1.5
		c-6,2.2-12.6,3.1-19.4,3.7C169,211.6,164.7,211.6,160.5,211.6z">
		 <animate
		 attributeName="stroke-dashoffset"
		 from="500"
		 to="0"
		 dur="1s"
		 begin="5s"
		 fill="freeze" />
		</path>
	<path class="st5" stroke-dashoffset="500" stroke-dasharray="500" d="M120.8,130.6c-2.8,0-4.9-0.4-6.7-2.2c-1.8-1.7-1.7-3.7-1.8-5.9c-0.1-3.2,2-5.2,4.2-7.2
		c0.4-0.4,0.8-0.7,1.3-0.8c2.3-0.2,4.6,0.1,6.5,1.6c0.6,0.5,1.1,1.2,1.7,1.7c0.8,0.7,1.2,1.7,1.3,2.8c0.2,2.1-0.1,4.3-0.9,6.1
		C125.3,129,123.6,131.3,120.8,130.6z">
		<animate
		 attributeName="fill"
		 from="transparent"
		 to="#C6E9EE"
		 dur="1s"
		 begin="4s"
		 fill="freeze" />
		 <animate
		 attributeName="stroke-dashoffset"
		 from="500"
		 to="0"
		 dur="8s"
		 begin="3s"
		 fill="freeze" />
		 </path>
	<path class="st5" stroke-dashoffset="500" stroke-dasharray="500" d="M193.6,127.3c-2.8,0-4.9-0.4-6.7-2.2c-1.8-1.7-1.7-3.7-1.8-5.9c-0.1-3.2,2-5.2,4.2-7.2
		c0.4-0.4,0.8-0.7,1.3-0.8c2.3-0.2,4.6,0.1,6.5,1.6c0.6,0.5,1.1,1.2,1.7,1.7c0.8,0.7,1.2,1.7,1.3,2.8c0.2,2.1-0.1,4.3-0.9,6.1
		C198.1,125.7,196.4,128,193.6,127.3z">
		<animate
		 attributeName="fill"
		 from="transparent"
		 to="#C6E9EE"
		 dur="1s"
		 begin="4s"
		 fill="freeze" />
		 <animate
		 attributeName="stroke-dashoffset"
		 from="550"
		 to="0"
		 dur="8s"
		 begin="3.5s"
		 fill="freeze" />
		</path>
</g>
<g id="Eyes">
	<path fill="transparent" d="M194.8,119.4c0,2.2-1.4,3.4-3.3,3.9c-1.9,0.5-3.3-0.7-4.4-2.2c-0.3-0.5-0.4-1.5,0-1.6c2.8-0.1,1.4-4.2,4-4.2
		C193.1,115.4,194.8,117.4,194.8,119.4z">
		<animate
		 attributeName="fill"
		 from="transparent"
		 to="#111"
		 dur="500ms"
		 begin="5s"
		 fill="freeze" />
		 </path>
	<path fill="transparent" d="M118.7,117.7c2.7-0.2,3.6,1.7,4,3.1c0.5,1.6-0.9,2.9-2.3,3.8c-1.8,1.1-3-0.1-4.4-1c-0.5-0.3-0.6-1.1-0.4-1.6
		c0.8-1.3,3.1-1.9,1.8-4.1C118.1,117.8,118.6,117.7,118.7,117.7z">
		<animate
		 attributeName="fill"
		 from="transparent"
		 to="#111"
		 dur="500ms"
		 begin="5s"
		 fill="freeze" />
	 </path>
</g>
</svg>
